<svg version="1.1" xmlns="http://www.w3.org/2000/svg" xmlns:xlink="http://www.w3.org/1999/xlink" width="1165" height="758"><defs><clipPath id="JnIlgfFoeOTO"><path fill="none" stroke="none" d=" M 0 0 L 1165 0 L 1165 758 L 0 758 L 0 0 Z"/></clipPath></defs><g transform="scale(1,1)" clip-path="url(#JnIlgfFoeOTO)"><g><rect fill="rgb(255,255,255)" stroke="none" x="0" y="0" width="1166" height="759" fill-opacity="1"/><path fill="none" stroke="rgb(0,0,255)" paint-order="fill stroke markers" d=" M 639.483340930024 455.8578116688798 C 639.483340930024 566.2833321387823 549.965769537017 655.8009035317896 439.5402490671149 655.8009035317896 C 329.1147285972128 655.8009035317896 239.59715720420576 566.2833321387823 239.59715720420576 455.8578116688798 C 239.59715720420576 345.4322911989773 329.1147285972128 255.91471980596995 439.5402490671149 255.91471980596995 C 549.965769537017 255.91471980596995 639.483340930024 345.4322911989773 639.483340930024 455.8578116688798 Z" stroke-opacity="0.8" stroke-linejoin="round" stroke-miterlimit="10" stroke-width="2.5" stroke-dasharray="2.5,3"/><text fill="rgb(0,0,255)" stroke="none" font-family="geogebra-sans-serif, sans-serif" font-size="16px" font-style="normal" font-weight="normal" text-decoration="normal" x="259" y="303" text-anchor="start" dominant-baseline="alphabetic" fill-opacity="1">Original circle of outgoing arc</text><text fill="none" stroke="rgb(255,255,255)" font-family="geogebra-sans-serif, sans-serif" font-size="16px" font-style="normal" font-weight="normal" text-decoration="normal" x="259" y="303" text-anchor="start" dominant-baseline="alphabetic" stroke-opacity="1" stroke-linejoin="bevel" stroke-miterlimit="10" stroke-width="3">Original circle of outgoing arc</text><text fill="rgb(0,0,255)" stroke="none" font-family="geogebra-sans-serif, sans-serif" font-size="16px" font-style="normal" font-weight="normal" text-decoration="normal" x="259" y="303" text-anchor="start" dominant-baseline="alphabetic" fill-opacity="1">Original circle of outgoing arc</text><path fill="none" stroke="rgb(255,0,0)" paint-order="fill stroke markers" d=" M 535.6148572604038 276.51718336531866 C 535.6148572604038 297.207746626823 518.8418416926115 313.9807621946154 498.15127843110724 313.9807621946154 C 477.46071516960296 313.9807621946154 460.6876996018106 297.207746626823 460.6876996018106 276.51718336531866 C 460.6876996018106 255.8266201038143 477.46071516960296 239.0536045360219 498.15127843110724 239.0536045360219 C 518.8418416926115 239.0536045360219 535.6148572604038 255.8266201038143 535.6148572604038 276.51718336531866 Z" stroke-opacity="0.8" stroke-linecap="round" stroke-linejoin="round" stroke-miterlimit="10" stroke-width="1.5"/><path fill="none" stroke="rgb(51,153,0)" paint-order="fill stroke markers" d=" M 628.6449566923432 410.4718324181412 C 628.6449566923432 465.422227711622 584.0988598043612 509.9683245996042 529.1484645108806 509.9683245996042 C 474.1980692173999 509.9683245996042 429.65197232941784 465.422227711622 429.65197232941784 410.4718324181412 C 429.65197232941784 355.52143712466045 474.1980692173999 310.9753402366782 529.1484645108806 310.9753402366782 C 584.0988598043612 310.9753402366782 628.6449566923432 355.52143712466045 628.6449566923432 410.4718324181412 Z" stroke-opacity="0.8" stroke-linecap="round" stroke-linejoin="round" stroke-miterlimit="10" stroke-width="1.5"/><path fill="none" stroke="rgb(255,153,0)" paint-order="fill stroke markers" d=" M 617.9090909090908 365.5151515151515 C 597.0397985909422 324.31167693829406 550.5592734948964 302.88752643380167 505.67580129951915 313.78374608801505" stroke-opacity="0.8" stroke-linecap="round" stroke-linejoin="round" stroke-miterlimit="10" stroke-width="5"/><path fill="none" stroke="rgb(255,153,0)" paint-order="fill stroke markers" d=" M 460.93939393939394 272.1818181818181 C 459.55081559209503 284.1004489961335 463.9553607946516 295.9630278060778 472.7858363844265 304.0873500038322 C 481.6163119742013 312.2116722015867 493.8040631570546 315.61454092787665 505.56595017193945 313.23968847696153" stroke-opacity="0.8" stroke-linecap="round" stroke-linejoin="round" stroke-miterlimit="10" stroke-width="5"/><path fill="none" stroke="rgb(97,97,97)" paint-order="fill stroke markers" d=" M -5 681.0145611963803 L 1171 85.37819756001477" stroke-opacity="0.8" stroke-linecap="round" stroke-linejoin="round" stroke-miterlimit="10" stroke-width="1.5"/><path fill="none" stroke="rgb(97,97,97)" paint-order="fill stroke markers" d=" M 403.64018829067385 764 L 493.2324213003824 -5" stroke-opacity="0.8" stroke-linejoin="round" stroke-miterlimit="10" stroke-width="2.5" stroke-dasharray="10.5,8"/><path fill="none" stroke="rgb(97,97,97)" paint-order="fill stroke markers" d=" M -5 217.89761694616024 L 1171 354.9073256840249" stroke-opacity="0.8" stroke-linejoin="round" stroke-miterlimit="10" stroke-width="2.5" stroke-dasharray="2.5,3"/><path fill="none" stroke="rgb(97,97,97)" paint-order="fill stroke markers" d=" M 819.7390791027146 764 L 430.2455726092094 -5" stroke-opacity="0.8" stroke-linejoin="round" stroke-miterlimit="10" stroke-width="2.5" stroke-dasharray="10.5,8"/><path fill="rgb(255,0,0)" stroke="none" paint-order="stroke fill markers" d=" M 468.2093168952971 207.50736245505948 C 467.9984085008064 207.50736245505948 467.7928946897096 207.53696231178694 467.59727503674355 207.59260149218917 L 467.5972750749709 207.59260149218917 C 467.79822821570855 207.53561747840544 468.00473923177304 207.50748513374106 468.2106339215927 207.50748513374106 C 468.2981910091538 207.50748513374106 468.3856366408353 207.51257256145766 468.47249600726013 207.52269209929352 L 468.4724960072608 207.52269209929352 C 468.384063432507 207.51238927505037 468.29623209412324 207.50736245505948 468.2093168952971 207.50736245505948 Z M 468.4737588375975 207.52283958455075 C 468.76443258038984 207.55686993947768 469.0485141184975 207.64725915807645 469.30820541381536 207.79193368250958 L 469.30820543315923 207.79193368250958 C 469.0577795919216 207.65216072185137 468.7763027677061 207.55825700695596 468.47375888444486 207.52283958455075 Z M 467.8438956455345 212.91817853744405 L 465.3486371921129 214.8926874005863 L 458.70451028111194 271.9214433866784 C 458.560709252516 273.1557355487936 459.4447269821391 274.2729008115041 460.6790191442543 274.4167018401 C 460.76745171900814 274.4270046643432 460.85528305739183 274.43203148433406 460.942198256218 274.43203148433406 C 462.0683965393687 274.43203148433406 463.0407793933232 273.588052564319 463.17427759767594 272.44219297695764 L 469.8184045086769 215.41343699086568 L 467.84389564553453 212.91817853744405 Z" fill-opacity="1"/><path fill="rgb(255,0,0)" stroke="none" paint-order="stroke fill markers" d=" M 466.4477070388936 211.1537643642165 L 474.3457424914631 221.13479817790312 C 475.11683616679835 222.10925721816199 476.53188623107263 222.27411741982502 477.5063452713315 221.50302374448972 C 478.48080431159036 220.7319300691545 478.6456645132534 219.3168800048802 477.87457083791816 218.34242096462134 L 469.97653538534865 208.36138715093466 C 469.2054417100134 207.38692811067585 467.79039164573913 207.22206790901282 466.81593260548027 207.99316158434806 C 465.8414735652214 208.76425525968335 465.6766133635584 210.17930532395764 466.4477070388936 211.1537643642165 Z M 459.62727600507543 219.4200253833725 L 469.60830981876205 211.5219899308031 C 470.582768859021 210.7508962554678 470.74762906068395 209.33584619119353 469.97653538534865 208.36138715093466 C 469.20544171001336 207.38692811067585 467.7903916457391 207.22206790901282 466.8159326054802 207.99316158434806 L 456.8348987917936 215.8911970369175 C 455.8604397515347 216.6622907122528 455.69557954987175 218.07734077652708 456.46667322520705 219.0517998167859 C 457.2377669005423 220.0262588570448 458.65281696481657 220.19111905870778 459.62727600507543 219.4200253833725 Z" fill-opacity="1"/><path fill="rgb(51,153,0)" stroke="none" paint-order="stroke fill markers" d=" M 594.120569139106 316.8537564866674 C 593.8660185982251 316.8730721650503 593.6109607032564 316.9417592795631 593.3690435364 317.0642887536852 C 593.6014526059245 316.94657506912085 593.8567181467791 316.8739882638492 594.120569198518 316.8537564866674 Z M 593.3666643590611 317.06549574351766 C 593.1257721436523 317.18790150951736 592.9202928520949 317.35243637559137 592.7546536433462 317.5455858565032 L 592.7546536443674 317.5455858565032 C 592.9264908360274 317.34553013304094 593.1352029515213 317.18311525847173 593.3666644183977 317.06549574351766 Z M 595.5507290687369 321.37171916368345 L 594.6702167102643 324.0595989948103 L 594.6702167102644 324.0595989948103 L 616.1248948142911 366.4188352514785 C 616.4772712284661 367.11455278715727 617.1807396778157 367.51558147757345 617.9106837929237 367.51558147757345 C 618.2146010217376 367.51558147757345 618.5231078872309 367.44606194201964 618.8127746454177 367.29934760995104 C 619.7981589392831 366.8002568637075 620.1923777501337 365.5968520726899 619.6932870038902 364.6114677788245 L 598.2386088998633 322.25223152215585 L 595.550729068737 321.37171916368345 Z" fill-opacity="1"/><path fill="rgb(51,153,0)" stroke="none" paint-order="stroke fill markers" d=" M 593.6501110131327 320.7491029040889 L 604.4016303376391 324.27115233797906 C 605.4513127050022 324.61501380314974 606.581003187667 324.04283290933245 606.9248646528376 322.99315054196927 C 607.2687261180084 321.9434681746061 606.6965452241913 320.81377769194137 605.646862856828 320.4699162267707 L 594.8953435323216 316.9478667928805 C 593.8456611649583 316.60400532770984 592.7159706822936 317.17618622152713 592.3721092171229 318.2258685888903 C 592.0282477519522 319.2755509562536 592.6004286457694 320.4052414389183 593.6501110131327 320.7491029040889 Z M 592.6512958944413 330.2226204325857 L 596.1733453283314 319.4711011080792 C 596.517206793502 318.42141874071604 595.9450258996849 317.2917282580513 594.8953435323216 316.9478667928805 C 593.8456611649583 316.60400532770984 592.7159706822936 317.17618622152713 592.3721092171229 318.2258685888903 L 588.8500597832328 328.9773879133967 C 588.5061983180622 330.02707028076 589.0783792118793 331.1567607634247 590.1280615792425 331.5006222285954 C 591.1777439466058 331.84448369376605 592.3074344292705 331.2723027999489 592.6512958944413 330.2226204325857 Z" fill-opacity="1"/><path fill="rgb(21,101,192)" stroke="none" paint-order="stroke fill markers" d=" M 465.93939393939394 272.181818181818 C 465.93939393939394 274.94324193097196 463.7008176885479 277.181818181818 460.93939393939394 277.181818181818 C 458.17797019024 277.181818181818 455.93939393939394 274.94324193097196 455.93939393939394 272.181818181818 C 455.93939393939394 269.42039443266407 458.17797019024 267.181818181818 460.93939393939394 267.181818181818 C 463.7008176885479 267.181818181818 465.93939393939394 269.42039443266407 465.93939393939394 272.181818181818 Z" fill-opacity="1"/><path fill="none" stroke="rgb(0,0,0)" paint-order="fill stroke markers" d=" M 465.93939393939394 272.181818181818 C 465.93939393939394 274.94324193097196 463.7008176885479 277.181818181818 460.93939393939394 277.181818181818 C 458.17797019024 277.181818181818 455.93939393939394 274.94324193097196 455.93939393939394 272.181818181818 C 455.93939393939394 269.42039443266407 458.17797019024 267.181818181818 460.93939393939394 267.181818181818 C 463.7008176885479 267.181818181818 465.93939393939394 269.42039443266407 465.93939393939394 272.181818181818 Z" stroke-opacity="1" stroke-linecap="round" stroke-linejoin="round" stroke-miterlimit="10"/><text fill="rgb(21,101,192)" stroke="none" font-family="geogebra-sans-serif, sans-serif" font-size="16px" font-style="normal" font-weight="normal" text-decoration="normal" x="435" y="257" text-anchor="start" dominant-baseline="alphabetic" fill-opacity="1">C</text><text fill="none" stroke="rgb(255,255,255)" font-family="geogebra-sans-serif, sans-serif" font-size="16px" font-style="normal" font-weight="normal" text-decoration="normal" x="435" y="257" text-anchor="start" dominant-baseline="alphabetic" stroke-opacity="1" stroke-linejoin="bevel" stroke-miterlimit="10" stroke-width="3">C</text><text fill="rgb(21,101,192)" stroke="none" font-family="geogebra-sans-serif, sans-serif" font-size="16px" font-style="normal" font-weight="normal" text-decoration="normal" x="435" y="257" text-anchor="start" dominant-baseline="alphabetic" fill-opacity="1">C</text><path fill="rgb(21,101,192)" stroke="none" paint-order="stroke fill markers" d=" M 622.9090909090907 365.5151515151515 C 622.9090909090907 368.27657526430545 620.6705146582447 370.5151515151515 617.9090909090907 370.5151515151515 C 615.1476671599366 370.5151515151515 612.9090909090907 368.27657526430545 612.9090909090907 365.5151515151515 C 612.9090909090907 362.75372776599755 615.1476671599366 360.5151515151515 617.9090909090907 360.5151515151515 C 620.6705146582447 360.5151515151515 622.9090909090907 362.75372776599755 622.9090909090907 365.5151515151515 Z" fill-opacity="1"/><path fill="none" stroke="rgb(0,0,0)" paint-order="fill stroke markers" d=" M 622.9090909090907 365.5151515151515 C 622.9090909090907 368.27657526430545 620.6705146582447 370.5151515151515 617.9090909090907 370.5151515151515 C 615.1476671599366 370.5151515151515 612.9090909090907 368.27657526430545 612.9090909090907 365.5151515151515 C 612.9090909090907 362.75372776599755 615.1476671599366 360.5151515151515 617.9090909090907 360.5151515151515 C 620.6705146582447 360.5151515151515 622.9090909090907 362.75372776599755 622.9090909090907 365.5151515151515 Z" stroke-opacity="1" stroke-linecap="round" stroke-linejoin="round" stroke-miterlimit="10"/><text fill="rgb(21,101,192)" stroke="none" font-family="geogebra-sans-serif, sans-serif" font-size="16px" font-style="normal" font-weight="normal" text-decoration="normal" x="622" y="356" text-anchor="start" dominant-baseline="alphabetic" fill-opacity="1">A</text><text fill="none" stroke="rgb(255,255,255)" font-family="geogebra-sans-serif, sans-serif" font-size="16px" font-style="normal" font-weight="normal" text-decoration="normal" x="622" y="356" text-anchor="start" dominant-baseline="alphabetic" stroke-opacity="1" stroke-linejoin="bevel" stroke-miterlimit="10" stroke-width="3">A</text><text fill="rgb(21,101,192)" stroke="none" font-family="geogebra-sans-serif, sans-serif" font-size="16px" font-style="normal" font-weight="normal" text-decoration="normal" x="622" y="356" text-anchor="start" dominant-baseline="alphabetic" fill-opacity="1">A</text><path fill="rgb(97,97,97)" stroke="none" paint-order="stroke fill markers" d=" M 443.5402490671149 455.8578116688798 C 443.5402490671149 458.06695066820294 441.7493880664381 459.8578116688798 439.5402490671149 459.8578116688798 C 437.33111006779177 459.8578116688798 435.5402490671149 458.06695066820294 435.5402490671149 455.8578116688798 C 435.5402490671149 453.6486726695566 437.33111006779177 451.8578116688798 439.5402490671149 451.8578116688798 C 441.7493880664381 451.8578116688798 443.5402490671149 453.6486726695566 443.5402490671149 455.8578116688798 Z" fill-opacity="1"/><path fill="none" stroke="rgb(0,0,0)" paint-order="fill stroke markers" d=" M 443.5402490671149 455.8578116688798 C 443.5402490671149 458.06695066820294 441.7493880664381 459.8578116688798 439.5402490671149 459.8578116688798 C 437.33111006779177 459.8578116688798 435.5402490671149 458.06695066820294 435.5402490671149 455.8578116688798 C 435.5402490671149 453.6486726695566 437.33111006779177 451.8578116688798 439.5402490671149 451.8578116688798 C 441.7493880664381 451.8578116688798 443.5402490671149 453.6486726695566 443.5402490671149 455.8578116688798 Z" stroke-opacity="1" stroke-linecap="round" stroke-linejoin="round" stroke-miterlimit="10"/><text fill="rgb(97,97,97)" stroke="none" font-family="geogebra-sans-serif, sans-serif" font-size="16px" font-style="normal" font-weight="normal" text-decoration="normal" x="444" y="448" text-anchor="start" dominant-baseline="alphabetic" fill-opacity="1">E</text><text fill="none" stroke="rgb(255,255,255)" font-family="geogebra-sans-serif, sans-serif" font-size="16px" font-style="normal" font-weight="normal" text-decoration="normal" x="444" y="448" text-anchor="start" dominant-baseline="alphabetic" stroke-opacity="1" stroke-linejoin="bevel" stroke-miterlimit="10" stroke-width="3">E</text><text fill="rgb(97,97,97)" stroke="none" font-family="geogebra-sans-serif, sans-serif" font-size="16px" font-style="normal" font-weight="normal" text-decoration="normal" x="444" y="448" text-anchor="start" dominant-baseline="alphabetic" fill-opacity="1">E</text><path fill="rgb(21,101,192)" stroke="none" paint-order="stroke fill markers" d=" M 503.15127843110724 276.51718336531866 C 503.15127843110724 279.2786071144726 500.9127021802612 281.51718336531866 498.15127843110724 281.51718336531866 C 495.3898546819533 281.51718336531866 493.15127843110724 279.2786071144726 493.15127843110724 276.51718336531866 C 493.15127843110724 273.7557596161647 495.3898546819533 271.51718336531866 498.15127843110724 271.51718336531866 C 500.9127021802612 271.51718336531866 503.15127843110724 273.7557596161647 503.15127843110724 276.51718336531866 Z" fill-opacity="1"/><path fill="none" stroke="rgb(0,0,0)" paint-order="fill stroke markers" d=" M 503.15127843110724 276.51718336531866 C 503.15127843110724 279.2786071144726 500.9127021802612 281.51718336531866 498.15127843110724 281.51718336531866 C 495.3898546819533 281.51718336531866 493.15127843110724 279.2786071144726 493.15127843110724 276.51718336531866 C 493.15127843110724 273.7557596161647 495.3898546819533 271.51718336531866 498.15127843110724 271.51718336531866 C 500.9127021802612 271.51718336531866 503.15127843110724 273.7557596161647 503.15127843110724 276.51718336531866 Z" stroke-opacity="1" stroke-linecap="round" stroke-linejoin="round" stroke-miterlimit="10"/><text fill="rgb(21,101,192)" stroke="none" font-family="geogebra-sans-serif, sans-serif" font-size="16px" font-style="normal" font-weight="normal" text-decoration="normal" x="502" y="267" text-anchor="start" dominant-baseline="alphabetic" fill-opacity="1">H</text><text fill="none" stroke="rgb(255,255,255)" font-family="geogebra-sans-serif, sans-serif" font-size="16px" font-style="normal" font-weight="normal" text-decoration="normal" x="502" y="267" text-anchor="start" dominant-baseline="alphabetic" stroke-opacity="1" stroke-linejoin="bevel" stroke-miterlimit="10" stroke-width="3">H</text><text fill="rgb(21,101,192)" stroke="none" font-family="geogebra-sans-serif, sans-serif" font-size="16px" font-style="normal" font-weight="normal" text-decoration="normal" x="502" y="267" text-anchor="start" dominant-baseline="alphabetic" fill-opacity="1">H</text><path fill="rgb(21,101,192)" stroke="none" paint-order="stroke fill markers" d=" M 534.1484645108806 410.4718324181412 C 534.1484645108806 413.23325616729517 531.9098882600346 415.4718324181412 529.1484645108806 415.4718324181412 C 526.3870407617266 415.4718324181412 524.1484645108806 413.23325616729517 524.1484645108806 410.4718324181412 C 524.1484645108806 407.71040866898727 526.3870407617266 405.4718324181412 529.1484645108806 405.4718324181412 C 531.9098882600346 405.4718324181412 534.1484645108806 407.71040866898727 534.1484645108806 410.4718324181412 Z" fill-opacity="1"/><path fill="none" stroke="rgb(0,0,0)" paint-order="fill stroke markers" d=" M 534.1484645108806 410.4718324181412 C 534.1484645108806 413.23325616729517 531.9098882600346 415.4718324181412 529.1484645108806 415.4718324181412 C 526.3870407617266 415.4718324181412 524.1484645108806 413.23325616729517 524.1484645108806 410.4718324181412 C 524.1484645108806 407.71040866898727 526.3870407617266 405.4718324181412 529.1484645108806 405.4718324181412 C 531.9098882600346 405.4718324181412 534.1484645108806 407.71040866898727 534.1484645108806 410.4718324181412 Z" stroke-opacity="1" stroke-linecap="round" stroke-linejoin="round" stroke-miterlimit="10"/><text fill="rgb(21,101,192)" stroke="none" font-family="geogebra-sans-serif, sans-serif" font-size="16px" font-style="normal" font-weight="normal" text-decoration="normal" x="533" y="400" text-anchor="start" dominant-baseline="alphabetic" fill-opacity="1">E</text><text fill="none" stroke="rgb(255,255,255)" font-family="geogebra-sans-serif, sans-serif" font-size="16px" font-style="normal" font-weight="normal" text-decoration="normal" x="533" y="400" text-anchor="start" dominant-baseline="alphabetic" stroke-opacity="1" stroke-linejoin="bevel" stroke-miterlimit="10" stroke-width="3">E</text><text fill="rgb(21,101,192)" stroke="none" font-family="geogebra-sans-serif, sans-serif" font-size="16px" font-style="normal" font-weight="normal" text-decoration="normal" x="533" y="400" text-anchor="start" dominant-baseline="alphabetic" fill-opacity="1">E</text><text fill="rgb(21,101,192)" stroke="none" font-family="geogebra-sans-serif, sans-serif" font-size="14px" font-style="normal" font-weight="normal" text-decoration="normal" x="544" y="407" text-anchor="start" dominant-baseline="alphabetic" fill-opacity="1">mod</text><text fill="none" stroke="rgb(255,255,255)" font-family="geogebra-sans-serif, sans-serif" font-size="14px" font-style="normal" font-weight="normal" text-decoration="normal" x="544" y="407" text-anchor="start" dominant-baseline="alphabetic" stroke-opacity="1" stroke-linejoin="bevel" stroke-miterlimit="10" stroke-width="3">mod</text><text fill="rgb(21,101,192)" stroke="none" font-family="geogebra-sans-serif, sans-serif" font-size="14px" font-style="normal" font-weight="normal" text-decoration="normal" x="544" y="407" text-anchor="start" dominant-baseline="alphabetic" fill-opacity="1">mod</text><path fill="rgb(97,97,97)" stroke="none" paint-order="stroke fill markers" d=" M 742.3678374516256 304.50357859101024 C 742.3678374516256 306.7127175903334 740.5769764509488 308.50357859101024 738.3678374516256 308.50357859101024 C 736.1586984523025 308.50357859101024 734.3678374516256 306.7127175903334 734.3678374516256 304.50357859101024 C 734.3678374516256 302.2944395916871 736.1586984523025 300.50357859101024 738.3678374516256 300.50357859101024 C 740.5769764509488 300.50357859101024 742.3678374516256 302.2944395916871 742.3678374516256 304.50357859101024 Z" fill-opacity="1"/><path fill="none" stroke="rgb(0,0,0)" paint-order="fill stroke markers" d=" M 742.3678374516256 304.50357859101024 C 742.3678374516256 306.7127175903334 740.5769764509488 308.50357859101024 738.3678374516256 308.50357859101024 C 736.1586984523025 308.50357859101024 734.3678374516256 306.7127175903334 734.3678374516256 304.50357859101024 C 734.3678374516256 302.2944395916871 736.1586984523025 300.50357859101024 738.3678374516256 300.50357859101024 C 740.5769764509488 300.50357859101024 742.3678374516256 302.2944395916871 742.3678374516256 304.50357859101024 Z" stroke-opacity="1" stroke-linecap="round" stroke-linejoin="round" stroke-miterlimit="10"/><text fill="rgb(97,97,97)" stroke="none" font-family="geogebra-sans-serif, sans-serif" font-size="16px" font-style="normal" font-weight="normal" text-decoration="normal" x="742" y="297" text-anchor="start" dominant-baseline="alphabetic" fill-opacity="1">M</text><text fill="none" stroke="rgb(255,255,255)" font-family="geogebra-sans-serif, sans-serif" font-size="16px" font-style="normal" font-weight="normal" text-decoration="normal" x="742" y="297" text-anchor="start" dominant-baseline="alphabetic" stroke-opacity="1" stroke-linejoin="bevel" stroke-miterlimit="10" stroke-width="3">M</text><text fill="rgb(97,97,97)" stroke="none" font-family="geogebra-sans-serif, sans-serif" font-size="16px" font-style="normal" font-weight="normal" text-decoration="normal" x="742" y="297" text-anchor="start" dominant-baseline="alphabetic" fill-opacity="1">M</text><path fill="rgb(21,101,192)" stroke="none" paint-order="stroke fill markers" d=" M 510.6758012995191 313.78374608801505 C 510.6758012995191 316.545169837169 508.43722504867304 318.78374608801505 505.6758012995191 318.78374608801505 C 502.91437755036515 318.78374608801505 500.6758012995191 316.545169837169 500.6758012995191 313.78374608801505 C 500.6758012995191 311.0223223388611 502.91437755036515 308.78374608801505 505.6758012995191 308.78374608801505 C 508.43722504867304 308.78374608801505 510.6758012995191 311.0223223388611 510.6758012995191 313.78374608801505 Z" fill-opacity="1"/><path fill="none" stroke="rgb(0,0,0)" paint-order="fill stroke markers" d=" M 510.6758012995191 313.78374608801505 C 510.6758012995191 316.545169837169 508.43722504867304 318.78374608801505 505.6758012995191 318.78374608801505 C 502.91437755036515 318.78374608801505 500.6758012995191 316.545169837169 500.6758012995191 313.78374608801505 C 500.6758012995191 311.0223223388611 502.91437755036515 308.78374608801505 505.6758012995191 308.78374608801505 C 508.43722504867304 308.78374608801505 510.6758012995191 311.0223223388611 510.6758012995191 313.78374608801505 Z" stroke-opacity="1" stroke-linecap="round" stroke-linejoin="round" stroke-miterlimit="10"/><text fill="rgb(21,101,192)" stroke="none" font-family="geogebra-sans-serif, sans-serif" font-size="16px" font-style="normal" font-weight="normal" text-decoration="normal" x="510" y="304" text-anchor="start" dominant-baseline="alphabetic" fill-opacity="1">G</text><text fill="none" stroke="rgb(255,255,255)" font-family="geogebra-sans-serif, sans-serif" font-size="16px" font-style="normal" font-weight="normal" text-decoration="normal" x="510" y="304" text-anchor="start" dominant-baseline="alphabetic" stroke-opacity="1" stroke-linejoin="bevel" stroke-miterlimit="10" stroke-width="3">G</text><text fill="rgb(21,101,192)" stroke="none" font-family="geogebra-sans-serif, sans-serif" font-size="16px" font-style="normal" font-weight="normal" text-decoration="normal" x="510" y="304" text-anchor="start" dominant-baseline="alphabetic" fill-opacity="1">G</text><path fill="rgb(97,97,97)" stroke="none" paint-order="stroke fill markers" d=" M 485.45345991794073 96.10275186595726 C 485.45345991794073 98.31189086528043 483.6625989172639 100.10275186595726 481.45345991794073 100.10275186595726 C 479.2443209186176 100.10275186595726 477.45345991794073 98.31189086528043 477.45345991794073 96.10275186595726 C 477.45345991794073 93.89361286663409 479.2443209186176 92.10275186595726 481.45345991794073 92.10275186595726 C 483.6625989172639 92.10275186595726 485.45345991794073 93.89361286663409 485.45345991794073 96.10275186595726 Z" fill-opacity="1"/><path fill="none" stroke="rgb(0,0,0)" paint-order="fill stroke markers" d=" M 485.45345991794073 96.10275186595726 C 485.45345991794073 98.31189086528043 483.6625989172639 100.10275186595726 481.45345991794073 100.10275186595726 C 479.2443209186176 100.10275186595726 477.45345991794073 98.31189086528043 477.45345991794073 96.10275186595726 C 477.45345991794073 93.89361286663409 479.2443209186176 92.10275186595726 481.45345991794073 92.10275186595726 C 483.6625989172639 92.10275186595726 485.45345991794073 93.89361286663409 485.45345991794073 96.10275186595726 Z" stroke-opacity="1" stroke-linecap="round" stroke-linejoin="round" stroke-miterlimit="10"/><text fill="rgb(97,97,97)" stroke="none" font-family="geogebra-sans-serif, sans-serif" font-size="16px" font-style="normal" font-weight="normal" text-decoration="normal" x="485" y="88" text-anchor="start" dominant-baseline="alphabetic" fill-opacity="1">P (heading intersection)</text><text fill="none" stroke="rgb(255,255,255)" font-family="geogebra-sans-serif, sans-serif" font-size="16px" font-style="normal" font-weight="normal" text-decoration="normal" x="485" y="88" text-anchor="start" dominant-baseline="alphabetic" stroke-opacity="1" stroke-linejoin="bevel" stroke-miterlimit="10" stroke-width="3">P (heading intersection)</text><text fill="rgb(97,97,97)" stroke="none" font-family="geogebra-sans-serif, sans-serif" font-size="16px" font-style="normal" font-weight="normal" text-decoration="normal" x="485" y="88" text-anchor="start" dominant-baseline="alphabetic" fill-opacity="1">P (heading intersection)</text></g></g></svg>